<svg version="1.1" xmlns="http://www.w3.org/2000/svg" style="display: block;" viewBox="0 0 2048 2048" width="1254" height="1254" preserveAspectRatio="none">
<defs>
	<linearGradient id="Gradient1" gradientUnits="userSpaceOnUse" x1="430.265" y1="791.652" x2="472.774" y2="579.155">
		<stop class="stop0" offset="0" stop-opacity="1" stop-color="rgb(74,64,216)"/>
		<stop class="stop1" offset="1" stop-opacity="1" stop-color="rgb(105,112,255)"/>
	</linearGradient>
	<linearGradient id="Gradient2" gradientUnits="userSpaceOnUse" x1="532.955" y1="858.815" x2="567.357" y2="509.019">
		<stop class="stop0" offset="0" stop-opacity="1" stop-color="rgb(68,56,206)"/>
		<stop class="stop1" offset="1" stop-opacity="1" stop-color="rgb(106,113,255)"/>
	</linearGradient>
	<linearGradient id="Gradient3" gradientUnits="userSpaceOnUse" x1="190.466" y1="1741.8" x2="197.316" y2="1338.26">
		<stop class="stop0" offset="0" stop-opacity="1" stop-color="rgb(72,58,202)"/>
		<stop class="stop1" offset="1" stop-opacity="1" stop-color="rgb(104,108,255)"/>
	</linearGradient>
	<linearGradient id="Gradient4" gradientUnits="userSpaceOnUse" x1="557.435" y1="1738.12" x2="559.513" y2="1463.88">
		<stop class="stop0" offset="0" stop-opacity="1" stop-color="rgb(72,58,201)"/>
		<stop class="stop1" offset="1" stop-opacity="1" stop-color="rgb(93,96,250)"/>
	</linearGradient>
</defs>
<path transform="translate(0,0)" fill="rgb(1,22,48)" d="M 2039 1357.69 C 2040.7 1359.45 2039.88 1704.57 2039.84 1738.51 C 2020.84 1738.83 2001 1738.41 1981.95 1738.24 C 1981.93 1727.97 1982.13 1716.85 1981.49 1706.66 C 1980.57 1706.83 1968.82 1718.29 1965.93 1720.25 C 1913.53 1755.79 1848.41 1746.25 1803.46 1704.3 C 1752.19 1651.22 1752.08 1556.09 1804.5 1504.01 C 1829.49 1479.39 1863.31 1465.82 1898.39 1466.35 C 1929.48 1466.79 1958.82 1478.16 1980.48 1500.69 C 1981.67 1455 1980.49 1404.12 1980.67 1357.78 C 1999.69 1357.25 2019.9 1357.64 2039 1357.69 z M 1912.25 1687.16 C 1934.04 1683.4 1952.54 1674.31 1965.53 1655.82 C 1979.27 1635.86 1984.57 1611.28 1980.3 1587.43 C 1973.54 1550.07 1937.05 1518.4 1898.37 1522.43 C 1804.38 1529.17 1799.06 1666.31 1886.91 1686.43 C 1894.64 1688.2 1904.25 1687.45 1912.25 1687.16 z"/>
<path transform="translate(0,0)" fill="url(#Gradient4)" d="M 544.246 1462.24 C 547.255 1462.14 550.264 1462.06 553.274 1462 C 635.946 1460.35 700.402 1515.44 702.615 1600.58 C 703.027 1616.4 702.581 1632.48 702.588 1648.34 L 702.872 1737.94 C 681.921 1737.79 660.969 1737.89 640.02 1738.23 C 639.736 1727.86 639.559 1718.42 639.769 1708.01 C 626.844 1721.48 616.349 1727.65 599.251 1734.43 C 594.415 1735.95 589.501 1737.2 584.531 1738.18 C 545.901 1745.77 505.188 1739.05 472.407 1716.78 C 444.192 1697.25 424.747 1667.44 418.233 1633.75 C 406.08 1568.09 433.323 1504.88 494.508 1475.53 C 510.951 1467.65 526.538 1465.42 544.246 1462.24 z M 560.491 1684.46 C 605.26 1683.52 640.876 1646.62 640.237 1601.85 C 639.598 1557.07 602.944 1521.2 558.167 1521.54 C 512.953 1521.87 476.661 1558.96 477.306 1604.17 C 477.951 1649.38 515.287 1685.42 560.491 1684.46 z"/>
<path transform="translate(0,0)" fill="rgb(1,22,48)" d="M 1376.7 589.216 C 1407.28 587.288 1438.84 588.815 1469.51 588.802 C 1493.68 588.791 1519.72 586.843 1543.69 589.463 C 1550.99 590.26 1559.29 592.289 1565.63 596.029 C 1576.65 602.526 1585.56 614.397 1588.75 626.824 C 1591.59 637.914 1591.3 793.018 1589.2 809.577 C 1588.46 815.371 1586.2 820.004 1583.16 824.913 C 1574.8 838.425 1562.11 844.696 1547.23 848.167 C 1541.25 849.646 1523.05 848.956 1516.2 848.898 C 1472.15 848.293 1427.94 849.353 1383.92 848.777 C 1357.58 848.433 1335.51 827.862 1335.72 801.055 C 1336.15 745.146 1335.15 689.291 1336.22 633.411 C 1336.7 608 1354.49 595.707 1376.7 589.216 z"/>
<path transform="translate(0,0)" fill="rgb(89,86,235)" d="M 1457.46 677.506 C 1481.09 674.194 1502.94 690.664 1506.27 714.3 C 1509.59 737.936 1493.14 759.794 1469.5 763.133 C 1445.85 766.474 1423.97 750.001 1420.64 726.346 C 1417.31 702.691 1433.8 680.821 1457.46 677.506 z"/>
<path transform="translate(0,0)" fill="rgb(1,22,48)" d="M 1016.62 311.526 C 1018.54 311.362 1020.47 311.276 1022.4 311.267 C 1085.29 310.815 1145.72 335.645 1190.13 380.18 C 1240.03 429.4 1262.77 500.133 1260.21 568.34 C 1259.74 580.792 1260.14 593.923 1260.18 606.436 C 1274.16 615.855 1269.25 624.506 1260.47 635.438 C 1259.48 667.988 1260.27 702.177 1259.98 734.953 C 1255.89 740.154 1251.84 745.829 1244.7 746.146 C 1239.56 746.375 1233.75 745.947 1229.81 742.254 C 1227.46 740.028 1225.86 737.128 1225.22 733.953 C 1224.02 728.037 1224.67 709.232 1224.61 702.339 C 1224.43 680.198 1225.34 657.251 1224.33 635.14 L 1200.03 634.829 C 1194.77 648.548 1190.48 663.745 1180.74 675.135 C 1133.61 730.253 1040.83 700.884 1034.74 628.566 C 1032.66 605.687 1039.88 582.932 1054.77 565.437 C 1093.61 520.381 1169.92 530.071 1193.44 585.758 C 1196.13 592.129 1199.16 599.933 1199.61 606.854 C 1205.29 606.734 1219.48 606.99 1224.23 605.557 L 1224.88 603.25 C 1224.8 575.491 1225.45 547.134 1221.7 519.951 C 1216.52 482.27 1198.03 439.113 1168.55 414.176 C 1166.56 412.488 1164.96 407.883 1163.17 406.104 C 1128.88 371.965 1081.62 351.429 1033.35 348.938 C 947.252 345.727 865.8 403.836 839.806 485.721 C 825.097 532.056 832.532 579.596 831.092 627.257 C 830.426 649.304 808.643 654.959 795.273 637.482 L 795.16 636.152 C 793.827 618.264 796.227 598.79 795.304 580.933 C 791.794 513.098 803.589 450.475 848.105 396.985 C 892.629 343.486 948.228 316.525 1016.62 311.526 z M 1125.55 673.752 C 1154.93 669.314 1175.14 641.886 1170.67 612.513 C 1166.2 583.14 1138.75 562.962 1109.38 567.462 C 1080.06 571.954 1059.92 599.354 1064.38 628.683 C 1068.84 658.012 1096.22 678.183 1125.55 673.752 z"/>
<path transform="translate(0,0)" fill="rgb(1,22,48)" d="M 847.825 129.015 C 856.585 126.895 890.115 127.55 900.971 127.544 L 1007.72 127.545 L 1135.64 127.546 C 1156.44 127.555 1186.53 126.03 1206.24 129.597 C 1293.76 138.157 1361.16 168.76 1422.12 233.97 C 1472.2 287.551 1503.37 367.555 1509.28 440.108 C 1510.99 461.157 1510.86 516.37 1509.88 538.539 C 1507.58 541.244 1504.35 544.105 1501.73 546.581 C 1485.92 547.987 1478.06 551.515 1469.23 536.326 C 1467.14 494.03 1471.73 459.586 1464.12 416.159 C 1441.62 287.847 1340.04 185.889 1209.62 170.468 C 1185.22 167.582 1159.08 168.47 1134.33 168.436 L 1026.22 168.652 C 986.71 168.397 947.204 168.399 907.7 168.658 C 873.168 168.886 848.146 167.559 813.955 174.214 C 702.816 195.255 613.572 278.132 584.377 387.412 C 581.997 396.336 580.024 405.363 578.463 414.466 C 575.754 431.258 579.426 457.413 557.836 460.366 C 522.759 465.165 533.658 429.309 537.421 407.167 C 547.93 341.814 577.495 281.017 622.41 232.396 C 680.021 168.793 762.757 133.528 847.825 129.015 z"/>
<path transform="translate(0,0)" fill="rgb(61,68,85)" d="M 847.825 129.015 C 856.585 126.895 890.115 127.55 900.971 127.544 L 1007.72 127.545 L 1135.64 127.546 C 1156.44 127.555 1186.53 126.03 1206.24 129.597 C 1191.27 131.007 1157.33 130.054 1140.86 130.046 L 1012.65 130.044 L 905.023 130.048 C 891.945 130.044 859.178 130.704 847.825 129.015 z"/>
<path transform="translate(0,0)" fill="url(#Gradient3)" d="M 253.302 1742.04 C 223.891 1746.21 184.428 1745.12 156.049 1738.01 C 45.1017 1710.24 -13.4929 1598.88 12.8667 1489.9 C 25.4705 1438.34 58.0385 1393.9 103.408 1366.34 C 153.796 1335.8 213.817 1328.97 270.464 1343.23 C 312.873 1353.91 357.623 1381.95 380.529 1419.83 C 364.279 1433.66 346.757 1446.46 330.895 1460.49 C 309.433 1435.85 295.226 1420.88 262.282 1409.31 C 225.451 1396.67 185.125 1399.03 150.023 1415.89 C 79.7557 1449.96 53.6085 1537.75 88.3447 1606.72 C 127.754 1684.98 233.26 1703.46 301.799 1652.82 C 310.877 1646.11 322.147 1628.76 331.491 1623.96 C 339.37 1626.88 373.779 1654.19 379.661 1660.87 C 379.874 1662.84 380.124 1665.23 378.763 1666.98 C 347.428 1707.24 309.592 1729.9 259.221 1740.53 L 253.302 1742.04 z"/>
<path transform="translate(0,0)" fill="rgb(71,58,199)" d="M 253.302 1742.04 L 254.283 1739.5 L 253.709 1738.28 L 250.347 1738.4 L 249.73 1736.98 C 252.905 1734.45 256.926 1732.98 259.994 1736.3 L 259.221 1740.53 L 253.302 1742.04 z"/>
<path transform="translate(0,0)" fill="rgb(71,58,199)" d="M 277.65 1727.75 C 279.628 1728.17 280.536 1728.5 282.449 1729.18 L 282.32 1730.67 L 278.691 1733.02 C 277.748 1733.67 276.486 1734.04 275.355 1734.47 L 273.953 1733.4 C 274.689 1729.39 274.035 1730.86 277.65 1727.75 z"/>
<path transform="translate(0,0)" fill="rgb(1,22,48)" d="M 1479.24 890.362 C 1493.88 890.146 1504.38 886.863 1510.46 902.456 C 1508.21 913.985 1506.47 925.704 1504.4 937.236 C 1481.2 1066.41 1384.12 1172.05 1257.74 1207.02 C 1216.05 1218.55 1175.97 1216.99 1132.98 1216.93 L 1023.28 1216.87 L 915.908 1216.95 C 881.588 1216.96 851.043 1218.03 817.118 1212.61 C 706.804 1195 609.173 1118.76 563.16 1017.26 C 556.842 1003.32 549.464 986.553 545.676 971.735 C 540.678 956.646 535.578 932.939 535.705 917.411 C 536.728 915.883 539.741 911.553 541.338 910.826 C 552.482 905.756 570.675 903.691 575.369 918.301 C 579.34 930.662 581.057 942.665 584.601 954.846 C 614.685 1058.26 701.049 1142.88 806.131 1168.04 C 847.199 1177.88 888.225 1176.07 929.872 1176.04 L 1043.71 1176.01 L 1134.22 1176.05 C 1163.11 1176.06 1194.73 1176.7 1223.33 1171.76 C 1258.43 1165.54 1291.97 1152.48 1322.05 1133.34 C 1386.02 1092.87 1430.42 1036.53 1454.93 964.297 C 1462.45 942.124 1464.91 919.701 1470.01 897.249 C 1473.61 893.539 1474.48 892.05 1479.24 890.362 z"/>
<path transform="translate(0,0)" fill="rgb(1,22,48)" d="M 1594.96 1466.4 C 1651.02 1460.4 1709.78 1504.08 1721.59 1557.99 C 1727.35 1584.27 1727.25 1597.87 1726.99 1624.68 C 1715.69 1624.2 1704.51 1624.05 1693.21 1624.4 C 1638.41 1626.1 1582.44 1623.03 1527.77 1624.56 C 1530.18 1637.07 1530.88 1643.91 1538.49 1655.04 C 1550.25 1672.52 1568.67 1684.41 1589.44 1687.93 C 1610.1 1691.54 1635.54 1688.46 1653.54 1677.31 C 1660.32 1673.1 1668.53 1666.42 1675.34 1661.59 C 1679.14 1661.18 1677.94 1661.31 1681.95 1663.51 C 1692.04 1673.63 1702.59 1686.08 1712.35 1696.86 C 1664.48 1751.04 1566.94 1757.46 1512.33 1710.3 C 1456.07 1661.73 1452.23 1568.31 1498.73 1511.96 C 1523.65 1481.76 1557.17 1469.49 1594.96 1466.4 z M 1527.85 1578.88 C 1553.9 1578.84 1580.23 1578.51 1606.25 1578.73 C 1619.34 1578.71 1632.42 1578.65 1645.5 1578.58 C 1652.95 1578.55 1662.29 1577.45 1669.26 1578.73 C 1662.64 1540.26 1634.3 1516.01 1594.8 1518.33 C 1558.64 1523.7 1535.08 1542 1527.85 1578.88 z"/>
<path transform="translate(0,0)" fill="rgb(1,22,48)" d="M 1025.65 774.245 C 1044.39 751.027 1064.61 747.664 1092.61 749.268 C 1145.6 752.304 1161.56 826.869 1217.87 807.17 C 1225.61 804.465 1233.16 794.173 1239.92 789.492 C 1248.94 783.3 1257.39 792.861 1254.55 801.724 C 1221.23 868.851 1149.19 888.237 1080.75 866.16 C 1060.75 858.667 1037.4 844.284 1026.26 825.526 C 1011.15 843.296 1000.59 852.626 978.77 862.449 C 943.569 878.25 903.551 879.503 867.43 865.934 C 840.008 855.401 811.729 832.124 799.318 805.107 C 792.454 790.164 807.449 781.514 817.246 793.672 C 833.295 816.991 869.222 814.085 888.381 796.296 C 916.823 769.887 919.079 758.006 959.239 749.205 C 988.743 746.978 1005.69 752.462 1025.65 774.245 z"/>
<path transform="translate(0,0)" fill="rgb(1,22,48)" d="M 1206.1 1348.26 C 1218.64 1347.43 1261.57 1346.79 1273.12 1357.31 C 1275.71 1359.67 1271.61 1371.68 1271.24 1376.1 C 1270.29 1387.54 1270.82 1397.84 1266.51 1408.87 C 1245.54 1403.65 1217.1 1396.09 1200.05 1414.9 C 1188.22 1427.94 1190.86 1449.8 1191.82 1466.22 C 1217.81 1466.03 1243.8 1466.13 1269.79 1466.53 C 1270.7 1483.9 1268.55 1500.12 1269.65 1518.98 C 1250.51 1519.46 1231.17 1518.69 1212.01 1519.39 C 1205.03 1519.65 1198.11 1519.66 1191.14 1519.09 L 1191.12 1685.66 C 1191.07 1702.48 1191.23 1719.3 1191.6 1736.11 C 1172.09 1736.17 1149.16 1735.76 1129.9 1736.83 C 1130.65 1664.4 1129.21 1591.42 1130.28 1519.07 C 1116.64 1518.78 1101.86 1519.12 1088.14 1519.18 C 1088.41 1501.61 1088.4 1484.05 1088.11 1466.48 C 1100.08 1465.69 1117.32 1466.34 1129.92 1466.24 C 1130.12 1402.69 1137.05 1363.61 1206.1 1348.26 z"/>
<path transform="translate(0,0)" fill="rgb(1,22,48)" d="M 883.653 937.295 C 888.769 936.931 894.02 936.489 899.077 937.595 C 910.107 940.007 920.452 946.347 930.453 951.376 C 942.63 957.499 955.109 963.009 967.339 969.033 C 980.588 975.559 994.628 983.683 1008.72 988.113 C 1014.69 989.991 1020.75 990.964 1027.02 990.939 C 1046.59 990.861 1101.39 960.525 1122.76 950.185 C 1132.97 945.245 1143.82 939.033 1155.19 937.397 C 1161.41 936.503 1166.64 938.022 1172.44 939.952 C 1176.25 943.695 1177.8 946.001 1180.9 950.263 C 1182.51 972.22 1181.5 998.693 1181.79 1021.06 C 1181.94 1033.08 1182.44 1061.13 1180.55 1071.47 C 1176.45 1076.46 1173.59 1079.61 1167.81 1082.5 C 1149.86 1085.59 1140.77 1079.22 1124.9 1071.67 L 1072.78 1046.84 C 1063.54 1042.44 1053.98 1037.14 1044.25 1033.94 C 1037.91 1031.87 1031.58 1030.78 1024.91 1030.86 C 991.631 1031.25 913.932 1088.54 886.767 1083.07 C 880.668 1081.85 875.62 1078.08 872.246 1072.89 C 870.615 1070.37 869.835 1067.86 869.506 1064.9 C 867.945 1050.89 867.246 965.029 870.399 952.662 C 872.355 944.988 877.228 941.358 883.653 937.295 z"/>
<path transform="translate(0,0)" fill="rgb(89,86,235)" d="M 775.399 1342.94 L 841.013 1342.98 C 839.581 1404.96 840.808 1471.7 840.786 1534.01 L 840.703 1607.37 C 840.581 1657.15 834.697 1685.82 898.99 1677.26 C 898.057 1696.01 900.051 1718.34 898.628 1736.24 C 842.379 1748.26 786.548 1726.63 777.61 1665.15 C 775.217 1648.68 775.577 1635 775.585 1618.49 L 775.606 1562.98 C 775.628 1490.28 776.518 1415.47 775.399 1342.94 z"/>
<path transform="translate(0,0)" fill="rgb(89,86,235)" d="M 937.917 1342.96 C 959.317 1342.81 980.717 1342.82 1002.12 1343 C 1003.5 1367.55 1003.05 1395.54 1003.08 1420.35 L 1003.09 1568.46 C 1003.05 1594.06 1002.81 1619.82 1002.99 1645.44 C 1003.06 1654.76 1006.63 1664.97 1013.7 1671.27 C 1025.23 1681.54 1045.21 1678.54 1059.39 1677.12 C 1059.04 1696.46 1059.34 1717.11 1059.33 1736.54 C 1053.48 1738.54 1044.85 1738.49 1038.79 1738.87 C 976.182 1742.77 939.738 1704.82 938.458 1643.15 C 937.94 1618.19 938.656 1590.02 938.252 1564.27 C 937.098 1490.81 939.911 1416.36 937.917 1342.96 z"/>
<path transform="translate(0,0)" fill="rgb(1,22,48)" d="M 1698.62 589.158 C 1707.24 588.904 1717.3 592.598 1718.65 602.298 C 1724.07 641.282 1720.7 682.22 1721.54 721.721 C 1722.19 752.522 1721.33 784.051 1721.02 814.859 C 1720.61 826.623 1718.6 844.011 1704.25 846.431 C 1690.06 848.824 1677.4 831.953 1666.65 824.212 L 1665.51 823.4 C 1656.83 816.364 1627.46 790.044 1620.11 782.535 C 1619.06 744.872 1619.19 694.553 1620.29 656.874 C 1626.14 648.589 1689.48 592.524 1698.62 589.158 z"/>
<path transform="translate(0,0)" fill="rgb(1,22,48)" d="M 1405.54 1463.17 C 1422.94 1461.17 1434.81 1464.11 1451.66 1466.81 C 1450.63 1483.13 1450.84 1506.99 1451.04 1523.37 C 1423.66 1519.91 1396.51 1518.41 1375.44 1539.49 C 1349.56 1565.4 1354.99 1609.05 1355.02 1642.94 L 1354.98 1736.95 L 1345.25 1736.98 C 1329.64 1737.03 1310.54 1736.63 1295.29 1738.01 C 1296.27 1726.78 1295.71 1708.54 1295.7 1696.73 L 1295.46 1616.43 C 1295.46 1598.64 1295.36 1576.59 1298.78 1559.29 C 1301.89 1543.3 1308.09 1528.08 1317.04 1514.47 C 1338.83 1481.69 1369.07 1470.35 1405.54 1463.17 z"/>
<path transform="translate(0,0)" fill="url(#Gradient2)" d="M 544.067 506.099 C 555.102 505.546 572.474 508.543 575.093 522.254 C 577.802 536.431 576.669 555.39 576.669 570.227 L 576.658 641.968 L 576.597 769.105 C 576.585 791.582 576.712 814.052 576.356 836.525 C 576.157 849.116 570.069 858.352 557.772 862.095 C 547.616 863.572 531.434 860.891 528.27 851.311 C 521.092 829.573 523.379 788.971 523.383 766.77 L 523.416 666.88 C 523.419 624.153 522.776 581.13 524.133 538.419 C 524.73 519.608 526.596 514.153 544.067 506.099 z"/>
<path transform="translate(0,0)" fill="url(#Gradient1)" d="M 448.772 574.202 C 458.799 573.797 474.565 577.664 476.279 589.558 C 481.137 623.264 478.502 658.423 479.062 692.567 C 479.498 719.217 479.363 746.652 478.118 773.257 C 477.158 787.189 469.193 794.551 456.254 797.844 C 451.609 798.253 446.989 797.892 442.598 796.248 C 435.946 793.757 430.364 788.814 427.86 782.061 C 424.79 773.78 424.852 615.827 426.308 597.177 C 426.621 593.16 427.186 589.818 429.316 586.339 C 433.755 579.084 440.806 576.008 448.772 574.202 z"/>
<path transform="translate(0,0)" fill="rgb(89,86,235)" d="M 643.552 574.14 C 682.618 572.035 674.468 608.822 674.423 634.48 C 674.351 675.526 674.701 716.751 675.483 757.786 C 675.858 777.46 674.18 789.678 654.467 797.445 C 649.469 798.464 644.288 798.118 639.47 796.441 C 616.514 788.208 622.348 762.05 622.15 742.683 C 621.693 698.083 622.729 653.48 621.295 608.904 C 621.112 603.199 622.723 592.937 624.722 587.558 C 627.671 580.87 637.018 576.155 643.552 574.14 z"/>
<path transform="translate(0,0)" fill="rgb(89,86,235)" d="M 355.948 645.389 C 384.761 648.489 382.151 670.661 381.432 692.839 C 380.71 715.089 383.258 729.608 356.95 736.013 C 354.595 735.917 351.749 735.739 349.449 735.332 C 342.729 734.093 336.851 730.061 333.274 724.239 C 326.09 712.539 328.05 671.954 331.241 658.341 C 340.343 648.39 342.557 646.907 355.948 645.389 z"/>
</svg>