<svg version="1.1" xmlns="http://www.w3.org/2000/svg" style="display: block;" viewBox="0 0 2048 557" width="1380" height="375" preserveAspectRatio="none">
<defs>
	<linearGradient id="Gradient1" gradientUnits="userSpaceOnUse" x1="266.545" y1="412.993" x2="272.209" y2="46.5396">
		<stop class="stop0" offset="0" stop-opacity="1" stop-color="rgb(72,58,202)"/>
		<stop class="stop1" offset="1" stop-opacity="1" stop-color="rgb(104,108,255)"/>
	</linearGradient>
	<linearGradient id="Gradient2" gradientUnits="userSpaceOnUse" x1="599.96" y1="410.174" x2="603.298" y2="160.924">
		<stop class="stop0" offset="0" stop-opacity="1" stop-color="rgb(72,58,200)"/>
		<stop class="stop1" offset="1" stop-opacity="1" stop-color="rgb(93,96,249)"/>
	</linearGradient>
</defs>
<path transform="translate(0,0)" fill="rgb(1,22,48)" d="M 1893.84 64.8919 C 1908.6 63.9652 1931.75 64.1189 1946.94 64.4873 L 1947.03 410.937 L 1894.79 410.838 C 1893.51 406.348 1893.79 386.621 1893.76 380.852 C 1882.51 397.058 1857.49 408.254 1838.43 411.669 C 1806.69 417.467 1773.95 410.419 1747.41 392.077 C 1663.33 333.541 1689.74 181.451 1795.24 165.497 C 1833.06 159.78 1865.73 166.526 1892.96 194.425 C 1895.83 154.828 1891.41 105.99 1893.84 64.8919 z M 1831.2 364.117 C 1876.71 354.989 1902.15 316.739 1892.87 271.416 C 1888.78 252.15 1877.16 235.315 1860.61 224.649 C 1850.06 217.73 1827.65 211.198 1814.84 214.391 C 1770.77 217.38 1748.97 257.319 1751.94 298.271 C 1753.33 317.67 1762.38 335.717 1777.1 348.433 C 1794.55 363.474 1809.55 364.933 1831.2 364.117 z"/>
<path transform="translate(0,0)" fill="rgb(83,91,115)" d="M 1893.76 380.852 L 1894.86 379.648 C 1897.25 382.473 1896.01 407.095 1894.79 410.838 C 1893.51 406.348 1893.79 386.621 1893.76 380.852 z"/>
<path transform="translate(0,0)" fill="url(#Gradient2)" d="M 590.819 159.461 C 593.721 159.39 596.624 159.348 599.527 159.336 C 650.359 159.185 696.074 183.359 718.567 229.846 C 734.593 262.966 731.622 293.118 731.626 328.612 L 731.608 410.073 C 713.395 409.658 693.756 410.042 675.431 410.056 L 675.047 382.438 C 664.191 394.308 651.45 401.716 636.496 407.042 C 600.627 420.933 549.777 410.366 519.288 387.948 C 465.271 349.141 456.171 264.943 494.624 212.264 C 520.54 176.759 549.294 165.846 590.819 159.461 z M 610.463 361.258 C 651.234 356.207 680.195 319.066 675.154 278.293 C 670.114 237.52 632.98 208.55 592.206 213.58 C 551.417 218.612 522.434 255.762 527.476 296.55 C 532.519 337.337 569.677 366.311 610.463 361.258 z"/>
<path transform="translate(0,0)" fill="url(#Gradient1)" d="M 277.151 45.3266 C 279.821 44.7679 283.568 44.4602 286.387 44.5399 C 335.055 45.916 381.938 60.1784 417.518 94.7175 C 420.508 97.6208 439.437 118.003 437.173 120.726 C 425.764 134.447 407.57 144.369 394.62 157.406 C 389.897 152.548 385.616 146.425 380.517 141.476 C 363.618 125.076 341.173 112.088 318.165 107.003 C 282.942 98.9706 245.968 105.45 215.575 124.981 C 159.099 161.063 143.034 244.945 178.676 300.595 C 197.154 329.022 226.19 348.922 259.369 355.897 C 297.749 364.29 333.76 355.178 366.291 334.315 C 373.289 328.078 389.036 310.88 394.636 307.198 C 401.225 308.468 433.132 334.857 438.335 341.225 C 438.39 343.488 436.319 346.89 434.957 348.641 C 374.356 426.533 252.404 437.465 173.565 381.042 C 135.746 353.468 110.325 312.094 102.817 265.897 C 94.4481 214.917 103.929 164.456 134.319 122.161 C 160.656 85.0972 199.955 59.2795 244.429 49.8244 C 255.865 47.3316 265.755 47.2031 277.151 45.3266 z"/>
<path transform="translate(0,0)" fill="rgb(1,22,48)" d="M 1543.93 163.455 C 1571.78 159.455 1612.7 177.171 1631.46 198.127 C 1660.9 231.017 1664.07 264.909 1662.7 306.962 C 1649.9 306.354 1637.48 306.437 1624.68 306.811 C 1577.59 308.185 1528.15 304.753 1481.35 306.961 C 1481.73 310.783 1482.45 314.564 1483.48 318.262 C 1497.02 365.949 1560.21 379.029 1598.59 353.68 C 1604.85 349.542 1610.43 344.479 1616.64 340.39 C 1617.71 339.68 1620.29 341.943 1621.27 342.627 C 1630.19 351.493 1640.22 363.117 1649.01 372.628 C 1648.39 373.361 1647.76 374.088 1647.13 374.808 C 1625.88 398.941 1589.34 411.848 1557.87 413.822 C 1524.13 416.064 1490.87 404.83 1465.4 382.586 C 1440.95 360.923 1428.11 328.503 1426.94 296.396 C 1424.2 221.629 1469.17 167.869 1543.93 163.455 z M 1481.18 266.065 C 1506.37 266.46 1531.56 266.552 1556.75 266.341 C 1574.66 266.325 1593.7 266.61 1611.52 265.991 C 1605.93 244.39 1601.3 232.348 1580.85 218.899 C 1569.71 211.573 1548.79 208.787 1535.66 211.263 C 1515.88 216.538 1500.62 223.484 1489.75 242.363 C 1485.6 249.734 1482.7 257.744 1481.18 266.065 z"/>
<path transform="translate(0,0)" fill="rgb(1,22,48)" d="M 1189.63 56.2561 C 1207.49 53.7832 1234.24 56.2429 1250.93 63.5589 C 1249.72 74.8531 1247.49 101.163 1244.65 110.863 C 1226.49 106.098 1200.44 99.2491 1185.35 114.823 C 1173.69 126.852 1175.92 147.559 1176.36 163.205 C 1199.5 163.525 1224.26 162.518 1246.79 163.354 C 1247.63 172.725 1245.91 198.872 1245.99 211.077 C 1223.67 210.462 1198.55 210.959 1176.07 211.02 L 1176.17 359.75 L 1176.07 408.703 C 1160.66 407.796 1136.77 408.747 1120.79 408.834 C 1119.84 344.298 1120.24 275.608 1120.82 211.005 C 1108.24 210.873 1095.45 210.993 1082.85 210.991 C 1083.24 195.58 1082.95 179.114 1082.93 163.623 C 1093.58 162.899 1109.18 163.133 1120.17 162.994 C 1122.51 143.749 1118.7 129.127 1125.4 108.895 C 1136.83 74.3976 1157.05 63.2037 1189.63 56.2561 z"/>
<path transform="translate(0,0)" fill="rgb(87,84,232)" d="M 798.411 51.2945 C 817.509 50.698 837.89 51.0874 857.085 51.1504 L 857.023 238.473 C 857.005 267.582 856.418 296.946 857.363 326.02 C 858.452 359.549 885.428 357.593 909.793 355.68 C 909.61 365.286 910.581 401.206 908.961 408.549 C 881.66 415.351 842.714 409.705 822.465 389.198 C 804.85 372.109 798.701 347.339 798.545 323.314 C 797.958 232.731 799.471 141.877 798.411 51.2945 z"/>
<path transform="translate(0,0)" fill="rgb(87,84,232)" d="M 946.149 51.2773 C 965.415 50.9787 984.684 50.9565 1003.95 51.2108 L 1004.55 231.554 C 1004.51 261.91 1004.12 292.336 1004.55 322.688 C 1005.06 358.532 1027.86 357.13 1055.85 355.782 L 1055.87 406.861 C 1054.09 413.236 1015.77 410.597 1009.15 409.084 C 935.498 392.251 946.386 318.284 946.426 260.382 L 946.392 123.458 C 946.386 101.473 947.235 72.7134 946.149 51.2773 z"/>
<path transform="translate(0,0)" fill="rgb(1,22,48)" d="M 1376.47 160.364 C 1389.76 159.205 1399.34 161.636 1412.36 163.569 C 1412.62 180.783 1412.51 198.002 1412.05 215.212 C 1389.71 210.561 1361.75 211.489 1344.49 228.15 C 1319.91 251.86 1324.88 287.553 1324.5 318.459 C 1324.13 348.679 1325.07 378.875 1324.33 409.054 C 1319.81 409.137 1314.84 409.503 1310.29 409.746 L 1271.02 409.911 L 1270.88 325.653 C 1270.86 299.856 1269.5 265.808 1275.39 241.395 C 1279.02 226.586 1285.73 212.709 1295.09 200.666 C 1316.73 172.999 1343.45 164.396 1376.47 160.364 z"/>
</svg>